<svg width="250" height="272" viewBox="0 0 250 272" fill="none" xmlns="http://www.w3.org/2000/svg">
<path fill-rule="evenodd" clip-rule="evenodd" d="M0 148.04V145.96C0 77.4992 55.4982 22 123.96 22H126.04C194.501 22 250 77.4992 250 145.96V148.04C250 216.502 194.501 272 126.04 272H123.96C55.4982 272 0 216.502 0 148.04Z" fill="#E0F2F3"/>
<path fill-rule="evenodd" clip-rule="evenodd" d="M60.094 70.7217C60.094 70.7217 56.8877 75.235 54.0081 76.5828C50.5772 78.1962 44.8794 77.0117 45.0019 77.0934C45.247 77.2772 49.7603 78.7476 51.1694 83.22C52.5785 87.6925 51.1082 91.634 51.1082 91.634C51.1082 91.634 55.356 86.1608 57.7862 85.3848C60.339 84.5679 65.853 85.4664 65.853 85.4664C65.853 85.4664 61.1151 82.0968 60.482 79.6666C59.8897 77.3793 60.094 70.7217 60.094 70.7217Z" fill="#FF9C39"/>
<path fill-rule="evenodd" clip-rule="evenodd" d="M174.578 9.7627C174.578 9.7627 171.249 14.4598 168.247 15.8689C164.674 17.5435 158.731 16.3182 158.874 16.3999C159.139 16.5837 163.836 18.1358 165.286 22.792C166.736 27.4483 165.225 31.5532 165.225 31.5532C165.225 31.5532 169.657 25.8554 172.189 25.0386C174.864 24.1808 180.603 25.1406 180.603 25.1406C180.603 25.1406 175.661 21.628 175.007 19.0956C174.394 16.7062 174.619 9.7627 174.619 9.7627H174.578Z" fill="#FFD052"/>
<path fill-rule="evenodd" clip-rule="evenodd" d="M69.1454 5.55571C69.1454 5.55571 72.944 9.57896 73.6996 12.6627C74.5982 16.3387 72.3108 21.7097 72.4334 21.5872C72.658 21.383 74.9862 17.2373 79.6628 16.7471C84.3395 16.257 87.893 18.4625 87.893 18.4625C87.893 18.4625 83.3593 13.2345 83.0734 10.6817C82.767 8.00639 84.7479 2.77832 84.7479 2.77832C84.7479 2.77832 80.5001 6.76068 77.9882 6.90364C75.6397 7.04659 69.125 5.51495 69.125 5.51495L69.1454 5.55571Z" fill="#00C9C3"/>
<path fill-rule="evenodd" clip-rule="evenodd" d="M178.548 59.7141C178.548 59.7141 181.06 62.3894 181.57 64.452C182.183 66.9027 180.651 70.4561 180.733 70.3948C180.876 70.2519 182.428 67.4949 185.532 67.1681C188.636 66.8413 191.005 68.3119 191.005 68.3119C191.005 68.3119 187.983 64.8196 187.799 63.145C187.595 61.3683 188.902 57.8965 188.902 57.8965C188.902 57.8965 186.084 60.5514 184.409 60.6536C182.836 60.7352 178.527 59.7345 178.527 59.7345L178.548 59.7141Z" fill="#00C9C3"/>
<path fill-rule="evenodd" clip-rule="evenodd" d="M129.082 1.1844C129.082 1.1844 130.716 2.92028 131.043 4.24772C131.431 5.82023 130.45 8.12794 130.491 8.0871C130.593 8.00541 131.594 6.22877 133.595 6.00412C135.597 5.77948 137.128 6.73929 137.128 6.73929C137.128 6.73929 135.188 4.49282 135.066 3.39003C134.943 2.24638 135.781 0 135.781 0C135.781 0 133.963 1.71545 132.881 1.77672C131.859 1.83799 129.082 1.1844 129.082 1.1844Z" fill="#FF9C39"/>
<path fill-rule="evenodd" clip-rule="evenodd" d="M59.5801 48.4003C59.5801 48.4003 57.3337 49.1763 55.9858 48.9312C54.3929 48.6453 52.6774 46.8074 52.6978 46.8687C52.7387 46.9912 53.964 48.625 53.331 50.5447C52.6979 52.4643 51.207 53.465 51.207 53.465C51.207 53.465 54.0457 52.6073 55.1077 52.934C56.2105 53.2812 57.9055 54.9762 57.9055 54.9762C57.9055 54.9762 57.0886 52.6072 57.4767 51.6065C57.8443 50.6671 59.5801 48.3799 59.5801 48.3799V48.4003Z" fill="#FFD052"/>
<path fill-rule="evenodd" clip-rule="evenodd" d="M188.838 93.7382C188.838 93.7382 186.591 94.5143 185.244 94.2692C183.651 93.9833 181.935 92.1453 181.956 92.2066C181.996 92.3291 183.222 93.963 182.589 95.8827C181.956 97.8023 180.465 98.803 180.465 98.803C180.465 98.803 183.303 97.9453 184.365 98.272C185.468 98.6192 187.163 100.314 187.163 100.314C187.163 100.314 186.346 97.9452 186.734 96.9445C187.102 96.0051 188.838 93.7178 188.838 93.7178V93.7382Z" fill="#FFCD52"/>
<path fill-rule="evenodd" clip-rule="evenodd" d="M196.407 129.225C196.696 123.871 193.311 125.781 193.629 124.016C194.526 118.966 188.97 122.352 189.867 119.126C191.632 112.745 186.886 110.56 180.781 116.478C170.378 126.577 172.939 131.438 168.222 139.005C161.002 150.595 151.279 157.887 153.739 166.018C156.199 174.149 172.302 174.164 185.729 161.981C201.08 148.034 196.233 132.48 196.407 129.21V129.225Z" fill="#FF9C39"/>
<path d="M158.398 134.723H98.2378C94.5049 134.723 91.4665 137.587 91.4665 141.132C90.8733 147.831 86.7642 160.954 88.7609 176.19C90.7286 190.427 106.745 213.012 128.144 213.186C128.144 213.186 128.26 213.186 128.303 213.186C128.361 213.186 128.419 213.186 128.463 213.186C149.862 212.998 169.452 181.08 166.587 159.768C164.75 146.081 162.116 134.708 158.383 134.708L158.398 134.723Z" fill="#00BCBC"/>
<path d="M131.414 224.196L132.875 223.343L133.498 216.702L131.24 216.745L131.414 224.196Z" fill="#FFA32C"/>
<path d="M128.028 212.795C128.115 216.398 129.967 218.018 132.21 217.975C134.452 217.917 136.232 216.195 136.16 212.607C136.073 209.004 134.192 206.14 131.949 206.197C129.707 206.255 127.956 209.207 128.028 212.81V212.795Z" fill="#00BCBC"/>
<path d="M136.319 231.387C133.049 226.916 133.281 224.138 133.281 224.138L129.765 222.171C129.765 222.171 126.914 223.01 128.39 228.58C129.316 232.111 131.067 236.625 132.644 237.044C136.29 238.014 137.896 233.514 136.319 231.373V231.387Z" fill="#FFA32C"/>
<path d="M128.318 226.092C128.868 227.249 130.387 227.553 131.704 226.772C133.02 225.976 133.628 224.399 133.078 223.227C132.528 222.055 130.951 221.505 129.634 222.301C128.318 223.097 127.768 224.934 128.318 226.092Z" fill="#FFA32C"/>
<path d="M118.204 223.126L116.888 222.069L117.264 215.399L119.492 215.79L118.204 223.126Z" fill="#FFA32C"/>
<path d="M123.254 212.347C122.632 215.891 120.548 217.237 118.349 216.846C116.15 216.456 114.631 214.502 115.253 210.958C115.875 207.413 118.161 204.852 120.375 205.228C122.588 205.604 123.876 208.787 123.268 212.332L123.254 212.347Z" fill="#00BCBC"/>
<path d="M112.287 229.521C116.193 225.585 116.381 222.807 116.381 222.807L120.143 221.375C120.143 221.375 122.834 222.619 120.548 227.915C119.101 231.272 116.7 235.482 115.065 235.67C111.303 236.09 110.391 231.416 112.272 229.521H112.287Z" fill="#FFA32C"/>
<path d="M120.982 225.441C120.259 226.511 118.725 226.584 117.539 225.614C116.352 224.645 115.991 222.981 116.714 221.91C117.437 220.84 119.072 220.521 120.259 221.491C121.445 222.46 121.72 224.37 120.997 225.441H120.982Z" fill="#FFA32C"/>
<g clip-path="url(#clip0_725_8488)">
<path d="M145.632 77.3468C149.707 74.9177 152.196 72.3579 154.86 73.7744C157.831 75.3529 156.724 78.653 155.944 83.3039C155.264 87.394 154.827 91.528 154.827 91.528L138.769 81.1722C138.769 81.1722 141.55 79.7913 145.632 77.3468Z" fill="#00B4B4"/>
<path d="M150.933 152.403L95.3774 152.358C95.3774 152.358 91.2387 149.926 90.7649 145.794L84.5751 115.702C84.4049 114.541 84.3473 113.369 84.4253 112.199C85.8053 90.9104 99.6401 74.2516 125.25 74.6013C150.884 74.7771 163.19 91.277 164.726 111.797C164.885 113.892 164.707 116.051 164.389 118.705C163.155 128.251 161.352 137.065 157.435 146.121C155.094 151.536 150.933 152.41 150.933 152.41L150.933 152.403Z" fill="#00BCBC"/>
<path d="M92.7844 87.8035C88.2207 86.5237 85.1433 84.7082 82.9448 86.7756C80.4913 89.0781 82.4259 91.9741 84.396 96.2616C86.129 100.031 87.6324 103.906 87.6324 103.906L100.412 89.6947C100.412 89.6947 97.3708 89.0899 92.7844 87.8035Z" fill="#00BCBC"/>
<path d="M109.766 97.0568C117.192 94.4306 125.514 95.5437 134.884 100.037C136.325 100.73 137.551 100.068 138.471 98.6793C140.334 95.8562 142.09 93.2026 144.124 92.2103C154.429 87.1908 159.881 96.9682 161.427 107C164.44 126.533 157.223 139.88 134.788 143.413C112.358 147.058 101.295 140.759 98.7617 118.68C97.6684 109.098 102.363 99.6746 109.766 97.0568Z" fill="white"/>
<path fill-rule="evenodd" clip-rule="evenodd" d="M121.711 116.664C124.067 116.24 126.292 116.558 127.888 117.389C128.003 117.452 128.142 117.334 128.092 117.208C126.928 114.585 124.1 112.994 121.153 113.53C118.206 114.066 116.105 116.544 115.938 119.411C115.928 119.547 116.104 119.608 116.19 119.507C117.384 118.169 119.362 117.088 121.719 116.664L121.711 116.664Z" fill="#008282"/>
<path d="M147.595 111.196C147.224 108.768 148.398 106.575 150.217 106.296C152.037 106.018 153.813 107.76 154.184 110.187C154.556 112.615 153.382 114.808 151.562 115.087C149.743 115.365 147.967 113.623 147.595 111.196Z" fill="#008282"/>
<path d="M146.859 120.245L141.666 114.705C141.666 114.705 141.65 114.683 141.635 114.676C140.403 113.516 138.3 114.074 137.357 115.478C135.914 117.609 133.08 122.289 132.739 123.258C132.302 124.508 132.579 125.898 133.327 126.601C135.353 128.5 138.057 130.601 138.057 130.601C139.821 131.892 141.914 133.359 143.536 131.576C145.893 128.283 147.129 126.439 147.881 122.911C148.072 121.94 147.322 120.778 146.859 120.245Z" fill="#FF9C39"/>
<path d="M146.03 122.316C146.315 122.9 146.036 123.309 145.89 124.052C145.393 126.532 143.523 129.145 142.004 129.599C140.797 129.959 137.351 127.532 136.21 126.181C135.642 125.456 135.254 125.335 135.661 124.733C139.389 119.184 145.478 121.191 146.038 122.323L146.03 122.316Z" fill="#DB6A0E"/>
<path d="M137.256 127.189C138.117 126.036 139.28 125.294 141.02 124.703C142.106 124.333 144.629 124.768 145.537 125.112C144.781 127.292 143.486 129.154 141.996 129.599C140.953 129.908 138.713 128.552 137.256 127.189Z" fill="#E5761A"/>
</g>
<path d="M96.7041 149.799C101.783 150.465 101.681 166.004 99.2795 169.317C94.8811 175.394 88.3268 201.915 81.6568 192.886C75.6958 184.813 87.0102 148.54 96.7041 149.799Z" fill="#008282"/>
<path d="M89.9038 198.269C98.6573 200.699 110.854 195.939 117.843 189.255C124.831 182.57 134.25 169.418 133.584 164.036C133.252 161.33 130.604 162.85 132.123 159.261C133.671 155.615 128.694 156.151 131.211 154.675C133.729 153.214 134.279 150.667 132.543 149.567C129.36 147.556 116.946 152.707 107.642 158.466C96.2555 165.512 85.0714 176.522 83.0024 181.442C77.6779 194.073 84.7097 197.487 89.9183 198.254L89.9038 198.269Z" fill="#008282"/>
<path opacity="0.1" fill-rule="evenodd" clip-rule="evenodd" d="M89.0358 171.936C91.1771 166.583 95.9083 163.848 100.697 163.226C101.797 163.081 92.2478 171.053 88.8332 176.349C87.9796 177.68 88.2545 173.875 89.0213 171.936H89.0358Z" fill="black"/>
<path d="M124.165 160.115C124.353 160.245 124.599 160.216 124.744 160.028C124.744 160.028 124.918 159.797 125.207 159.478L126.278 158.393C126.972 157.771 127.84 157.149 128.723 156.903C128.853 156.874 128.954 156.773 128.998 156.657C129.027 156.57 129.041 156.483 129.012 156.397C128.954 156.18 128.723 156.049 128.506 156.107C126.176 156.758 124.18 159.435 124.093 159.551C123.963 159.739 123.992 159.985 124.18 160.13L124.165 160.115Z" fill="#007878"/>
<path d="M126.075 166.872C126.263 167.002 126.524 166.959 126.654 166.771C126.668 166.742 128.52 164.152 130.546 163.53C130.676 163.486 130.763 163.4 130.806 163.284C130.835 163.197 130.85 163.11 130.806 163.023C130.734 162.806 130.517 162.691 130.286 162.748C127.985 163.457 126.046 166.178 125.96 166.293C125.829 166.481 125.873 166.742 126.061 166.872H126.075Z" fill="#007878"/>
<rect x="173" y="89" width="33" height="55" rx="4" fill="white" stroke="black" stroke-width="2"/>
<path d="M182.886 120.497V123.512H182.391V121.363L181.473 122.879L181.413 122.879L180.495 121.358V123.512H180V120.497H180.534L181.444 122.004L182.356 120.497H182.886Z" fill="#00A7A7"/>
<path d="M182.886 120.497V123.512H182.391V121.363L181.473 122.879L181.413 122.879L180.495 121.358V123.512H180V120.497H180.534L181.444 122.004L182.356 120.497H182.886Z" fill="#00A7A7"/>
<path fill-rule="evenodd" clip-rule="evenodd" d="M183.581 123.241C183.793 123.455 184.084 123.574 184.386 123.568C184.848 123.573 185.266 123.297 185.443 122.871C185.62 122.445 185.522 121.954 185.194 121.629C184.745 121.193 184.03 121.193 183.581 121.629C183.138 122.075 183.138 122.795 183.581 123.241ZM184.865 122.925C184.598 123.183 184.175 123.183 183.908 122.925C183.65 122.651 183.65 122.224 183.908 121.951C184.175 121.693 184.598 121.693 184.865 121.951C185.123 122.224 185.123 122.651 184.865 122.925Z" fill="#00A7A7"/>
<path d="M187.001 121.302C187.226 121.293 187.443 121.379 187.6 121.539C187.753 121.697 187.829 121.914 187.829 122.189V123.511H187.363V122.236C187.363 122.076 187.32 121.952 187.234 121.866C187.139 121.777 187.011 121.73 186.881 121.737C186.733 121.731 186.59 121.786 186.485 121.89C186.386 121.992 186.336 122.148 186.336 122.357V123.511H185.871V121.358H186.336V121.633C186.477 121.413 186.699 121.302 187.004 121.302" fill="#00A7A7"/>
<path fill-rule="evenodd" clip-rule="evenodd" d="M188.857 123.01C188.732 122.92 188.647 122.785 188.62 122.634H190.335C190.345 122.569 190.35 122.505 190.352 122.44C190.359 122.142 190.25 121.853 190.048 121.634C189.85 121.415 189.566 121.294 189.271 121.302C188.937 121.302 188.664 121.411 188.452 121.627C188.24 121.842 188.125 122.134 188.133 122.435C188.124 122.739 188.241 123.033 188.457 123.247C188.672 123.461 188.955 123.568 189.305 123.568C189.721 123.568 190.036 123.411 190.248 123.099L189.865 122.875C189.742 123.053 189.556 123.142 189.309 123.142C189.148 123.147 188.99 123.101 188.857 123.01ZM189.882 122.254H188.616C188.64 122.103 188.718 121.965 188.836 121.867C188.958 121.77 189.111 121.719 189.267 121.725C189.579 121.714 189.847 121.944 189.882 122.254Z" fill="#00A7A7"/>
<path d="M192.046 121.358H192.541L191.714 123.581C191.507 124.138 191.157 124.402 190.663 124.373V123.938C190.788 123.952 190.914 123.919 191.016 123.845C191.117 123.757 191.193 123.643 191.236 123.516L191.257 123.473L190.344 121.357H190.852L191.496 122.921L192.046 121.358Z" fill="#00A7A7"/>
<path fill-rule="evenodd" clip-rule="evenodd" d="M193.409 123.324C194.039 123.74 194.876 123.651 195.406 123.113C195.704 122.822 195.869 122.42 195.86 122.004C195.86 121.248 195.326 120.599 194.585 120.453C193.843 120.307 193.103 120.706 192.816 121.405C192.53 122.104 192.778 122.908 193.409 123.324ZM195.056 122.777C194.633 123.188 193.959 123.188 193.536 122.777C193.125 122.343 193.125 121.664 193.536 121.231C193.959 120.82 194.633 120.82 195.056 121.231C195.467 121.664 195.467 122.343 195.056 122.777Z" fill="#FF9C39"/>
<path d="M198.726 121.357H199.217L198.54 123.511H198.084L197.627 122.041L197.17 123.511H196.677L196.05 121.357H196.543L196.959 122.844L197.412 121.357H197.858L198.305 122.843L198.726 121.357Z" fill="#FF9C39"/>
<rect x="199.534" y="120.367" width="0.465426" height="3.1446" fill="#FF9C39"/>
<g clip-path="url(#clip1_725_8488)">
<ellipse cx="189.958" cy="111.409" rx="7.40112" ry="7.34594" fill="#005150"/>
<mask id="mask0_725_8488" style="mask-type:alpha" maskUnits="userSpaceOnUse" x="182" y="104" width="16" height="15">
<ellipse cx="189.957" cy="111.408" rx="7.40112" ry="7.34594" fill="#005150"/>
</mask>
<g mask="url(#mask0_725_8488)">
<mask id="mask1_725_8488" style="mask-type:luminance" maskUnits="userSpaceOnUse" x="182" y="104" width="16" height="15">
<ellipse cx="189.931" cy="111.409" rx="7.40112" ry="7.34594" fill="white"/>
</mask>
<g mask="url(#mask1_725_8488)">
<path fill-rule="evenodd" clip-rule="evenodd" d="M185.589 113.961C182.146 117.615 182.183 123.339 185.721 126.877C189.26 130.416 194.984 130.453 198.637 127.01L185.589 113.961Z" fill="#008181"/>
<path fill-rule="evenodd" clip-rule="evenodd" d="M189.891 117.308C191.066 119.215 193.55 119.854 195.499 118.729C197.448 117.604 198.136 115.133 197.072 113.162L189.891 117.308Z" fill="#FF9445"/>
<mask id="mask2_725_8488" style="mask-type:luminance" maskUnits="userSpaceOnUse" x="185" y="107" width="11" height="15">
<path fill-rule="evenodd" clip-rule="evenodd" d="M185.384 107.781H195.876V121.423H185.384V107.781Z" fill="white"/>
</mask>
<g mask="url(#mask2_725_8488)">
<path fill-rule="evenodd" clip-rule="evenodd" d="M194.515 120.697V112.219C194.515 112.055 194.506 111.893 194.489 111.734C194.416 111.077 194.475 110.414 194.642 109.774C194.673 109.654 194.702 109.531 194.729 109.403C194.799 109.073 194.446 108.817 194.154 108.986C194.023 109.062 193.886 109.136 193.75 109.201C193.577 109.285 193.371 109.248 193.236 109.111C192.427 108.291 191.303 107.781 190.061 107.781C188.818 107.781 187.694 108.291 186.885 109.111C186.751 109.247 186.545 109.284 186.371 109.201C186.235 109.136 186.099 109.062 185.968 108.986C185.676 108.817 185.324 109.073 185.393 109.403C185.42 109.53 185.448 109.653 185.479 109.771C185.646 110.411 185.706 111.074 185.633 111.731C185.615 111.891 185.606 112.054 185.606 112.219V114.416C185.606 117.209 187.284 119.617 189.687 120.697H186.492H195.876H194.515Z" fill="#00BCBC"/>
</g>
<path fill-rule="evenodd" clip-rule="evenodd" d="M191.893 109.96C191.05 109.96 190.332 110.496 190.06 111.246C189.789 110.496 189.071 109.96 188.228 109.96C187.151 109.96 186.278 110.834 186.278 111.912C186.278 114.133 186.492 115.934 190.06 115.934C193.43 115.934 193.842 114.133 193.842 111.912C193.842 110.834 192.969 109.96 191.893 109.96Z" fill="white"/>
</g>
<path fill-rule="evenodd" clip-rule="evenodd" d="M190.48 114.225L190.95 113.345C191.002 113.247 190.986 113.124 190.912 113.044L190.221 112.304C190.126 112.202 189.965 112.202 189.869 112.304L189.178 113.044C189.104 113.124 189.088 113.247 189.141 113.345L189.61 114.225C189.797 114.575 190.294 114.575 190.48 114.225Z" fill="#FF9C39"/>
<path fill-rule="evenodd" clip-rule="evenodd" d="M192.712 112.165H192.303C192.303 112.042 192.269 111.758 191.955 111.758C191.641 111.758 191.608 112.042 191.608 112.165H191.198C191.198 111.71 191.503 111.404 191.955 111.404C192.408 111.404 192.712 111.71 192.712 112.165Z" fill="#008282"/>
<path fill-rule="evenodd" clip-rule="evenodd" d="M188.945 112.165H188.536C188.536 112.042 188.502 111.758 188.188 111.758C187.874 111.758 187.84 112.042 187.84 112.165H187.431C187.431 111.71 187.735 111.404 188.188 111.404C188.641 111.404 188.945 111.71 188.945 112.165Z" fill="#008282"/>
</g>
</g>
<path fill-rule="evenodd" clip-rule="evenodd" d="M21.5259 122.251L51.5499 122.238C52.1565 122.238 52.7571 122.118 53.3174 121.886C53.8777 121.653 54.3867 121.313 54.8154 120.884C55.2442 120.455 55.5842 119.945 55.8161 119.385C56.048 118.824 56.1672 118.224 56.1669 117.617C56.1666 117.01 56.0469 116.41 55.8145 115.85C55.5822 115.289 55.2417 114.78 54.8126 114.351C54.3835 113.923 53.8742 113.583 53.3137 113.351C52.7532 113.119 52.1525 113 51.5459 113L21.5219 113.013C20.3135 113.039 19.1633 113.537 18.318 114.401C17.4726 115.265 16.9995 116.425 17 117.634C17.0005 118.843 17.4747 120.003 18.3208 120.866C19.1669 121.729 20.3175 122.226 21.5259 122.251ZM33.0099 140.713L63.0329 140.7C63.6476 140.713 64.2585 140.602 64.83 140.376C65.4015 140.149 65.9221 139.811 66.3611 139.38C66.8002 138.95 67.1489 138.436 67.3868 137.869C67.6248 137.302 67.7473 136.694 67.747 136.079C67.7467 135.464 67.6238 134.856 67.3853 134.289C67.1468 133.722 66.7977 133.209 66.3582 132.779C65.9188 132.349 65.398 132.011 64.8263 131.785C64.2546 131.559 63.6436 131.449 63.0289 131.462L33.0049 131.475C31.7799 131.476 30.6052 131.963 29.7394 132.829C28.8735 133.696 28.3874 134.871 28.3879 136.096C28.3884 137.321 28.8756 138.496 29.7422 139.362C30.6088 140.227 31.7849 140.714 33.0099 140.713Z" fill="white"/>
<path fill-rule="evenodd" clip-rule="evenodd" d="M35.3994 122.238V122.236L51.2894 122.229C50.0644 122.229 48.8898 122.716 48.024 123.583C47.1583 124.45 46.6723 125.625 46.6729 126.85C46.6736 128.075 47.1609 129.25 48.0276 130.115C48.8943 130.981 50.0694 131.467 51.2944 131.467L35.4024 131.474V131.472C36.6103 131.446 37.76 130.948 38.605 130.084C39.4499 129.221 39.9229 128.061 39.9224 126.853C39.9218 125.644 39.4479 124.485 38.6022 123.622C37.7565 122.759 36.6063 122.262 35.3984 122.238H35.3994ZM72.0364 164.908H68.0574C66.7923 164.904 65.5802 164.399 64.6857 163.505C63.7913 162.61 63.2871 161.398 63.2834 160.133C63.2871 158.868 63.7913 157.655 64.6858 156.761C65.5803 155.866 66.7924 155.362 68.0574 155.359H72.0364C73.3015 155.362 74.5138 155.866 75.4084 156.761C76.3031 157.655 76.8075 158.867 76.8114 160.133C76.8077 161.398 76.3035 162.61 75.4088 163.505C74.5141 164.4 73.3017 164.904 72.0364 164.908Z" fill="white"/>
<defs>
<clipPath id="clip0_725_8488">
<rect width="82.0754" height="78.9004" fill="white" transform="matrix(-0.999341 0.0362949 0.0362949 0.999341 163.332 73)"/>
</clipPath>
<clipPath id="clip1_725_8488">
<rect width="14.8084" height="14.8084" fill="white" transform="translate(182.559 104)"/>
</clipPath>
</defs>
</svg>
