<svg width="375" height="221" viewBox="0 0 375 221" fill="none" xmlns="http://www.w3.org/2000/svg">
<rect width="375" height="221" fill="#E0F2F3"/>
<g clip-path="url(#clip0_31_2611)">
<mask id="mask0_31_2611" style="mask-type:luminance" maskUnits="userSpaceOnUse" x="71" y="43" width="251" height="120">
<path d="M321.82 43H71V162.948H321.82V43Z" fill="white"/>
</mask>
<g mask="url(#mask0_31_2611)">
<path d="M266.926 61.021H205.422V59.7534H177.534V61.021H115.777C114.673 61.021 113.615 61.4593 112.835 62.2396C112.055 63.0199 111.616 64.0782 111.616 65.1816V149.399C111.616 150.502 112.055 151.561 112.835 152.341C113.615 153.121 114.673 153.559 115.777 153.559H266.926C268.03 153.559 269.088 153.121 269.868 152.341C270.648 151.561 271.087 150.502 271.087 149.399V65.1811C271.087 64.0778 270.648 63.0196 269.868 62.2394C269.088 61.4593 268.03 61.021 266.926 61.021Z" fill="#3F3D56"/>
<path d="M265.509 68.3733H117.194V152.038H265.509V68.3733Z" fill="#E6E6E6"/>
<path d="M259.269 72.7976H123.483V145.115H259.269V72.7976Z" fill="white"/>
<path d="M191.225 66.0918C192.065 66.0918 192.746 65.4107 192.746 64.5705C192.746 63.7304 192.065 63.0493 191.225 63.0493C190.384 63.0493 189.703 63.7304 189.703 64.5705C189.703 65.4107 190.384 66.0918 191.225 66.0918Z" fill="#066360"/>
<path d="M275.251 150.517H260.776V149.474C260.776 149.419 260.754 149.366 260.716 149.327C260.677 149.289 260.624 149.267 260.569 149.267H255.607C255.552 149.267 255.499 149.289 255.46 149.327C255.422 149.366 255.4 149.419 255.4 149.474V150.517H252.298V149.474C252.298 149.419 252.276 149.366 252.238 149.327C252.199 149.289 252.146 149.267 252.091 149.267H247.129C247.074 149.267 247.021 149.289 246.982 149.327C246.944 149.366 246.922 149.419 246.922 149.474V150.517H243.82V149.474C243.82 149.419 243.799 149.366 243.76 149.327C243.721 149.289 243.668 149.267 243.613 149.267H238.651C238.596 149.267 238.543 149.289 238.504 149.327C238.466 149.366 238.444 149.419 238.444 149.474V150.517H235.342V149.474C235.342 149.419 235.321 149.366 235.282 149.327C235.243 149.289 235.19 149.267 235.135 149.267H230.173C230.118 149.267 230.066 149.289 230.027 149.327C229.988 149.366 229.966 149.419 229.966 149.474V150.517H226.864V149.474C226.864 149.419 226.843 149.366 226.804 149.327C226.765 149.289 226.712 149.267 226.657 149.267H221.695C221.64 149.267 221.588 149.289 221.549 149.327C221.51 149.366 221.488 149.419 221.488 149.474V150.517H218.386V149.474C218.386 149.419 218.365 149.366 218.326 149.327C218.287 149.289 218.234 149.267 218.18 149.267H213.218C213.163 149.267 213.11 149.289 213.072 149.327C213.033 149.366 213.011 149.419 213.011 149.474V150.517H209.908V149.474C209.908 149.419 209.887 149.366 209.848 149.327C209.809 149.289 209.756 149.267 209.702 149.267H170.827C170.772 149.267 170.72 149.289 170.681 149.327C170.642 149.366 170.62 149.419 170.62 149.474V150.517H167.519V149.474C167.519 149.419 167.497 149.366 167.458 149.327C167.419 149.289 167.367 149.267 167.312 149.267H162.349C162.294 149.267 162.242 149.289 162.203 149.327C162.164 149.366 162.142 149.419 162.142 149.474V150.517H159.041V149.474C159.041 149.419 159.019 149.366 158.98 149.327C158.941 149.289 158.889 149.267 158.834 149.267H153.871C153.816 149.267 153.764 149.289 153.725 149.327C153.686 149.366 153.665 149.419 153.665 149.474V150.517H150.563V149.474C150.563 149.419 150.541 149.366 150.502 149.327C150.463 149.289 150.411 149.267 150.356 149.267H145.394C145.339 149.267 145.286 149.289 145.247 149.327C145.209 149.366 145.187 149.419 145.187 149.474V150.517H142.086V149.474C142.086 149.419 142.064 149.366 142.025 149.327C141.986 149.289 141.934 149.267 141.879 149.267H136.916C136.861 149.267 136.808 149.289 136.769 149.327C136.731 149.366 136.709 149.419 136.709 149.474V150.517H133.607V149.474C133.607 149.419 133.585 149.366 133.547 149.327C133.508 149.289 133.455 149.267 133.4 149.267H128.438C128.383 149.267 128.33 149.289 128.291 149.327C128.253 149.366 128.231 149.419 128.231 149.474V150.517H125.129V149.474C125.129 149.419 125.107 149.366 125.069 149.327C125.03 149.289 124.977 149.267 124.922 149.267H119.959C119.904 149.267 119.851 149.289 119.812 149.327C119.774 149.366 119.752 149.419 119.752 149.474V150.517H110.241C108.925 150.517 107.663 151.04 106.732 151.97C105.801 152.901 105.278 154.163 105.278 155.479V157.723C105.278 159.04 105.801 160.302 106.732 161.233C107.663 162.163 108.925 162.686 110.241 162.686H275.251C276.567 162.686 277.829 162.163 278.76 161.233C279.691 160.302 280.213 159.04 280.214 157.724V155.48C280.214 154.163 279.691 152.901 278.76 151.97C277.829 151.04 276.567 150.517 275.251 150.517Z" fill="#3F3D56"/>
<path d="M321.82 162.476H71V162.948H321.82V162.476Z" fill="#E6E6E6"/>
</g>
<mask id="mask1_31_2611" style="mask-type:luminance" maskUnits="userSpaceOnUse" x="48" y="90" width="103" height="87">
<path d="M150.864 90H48V177H150.864V90Z" fill="white"/>
</mask>
<g mask="url(#mask1_31_2611)">
<path fill-rule="evenodd" clip-rule="evenodd" d="M148.912 105.422C147.968 104.667 145.574 104.548 143.972 106.361C136.113 115.269 131.082 120.9 114.117 125.66C113.79 126.848 121.161 149.254 121.161 149.254C130.345 149.926 145.758 138.509 139.557 134.807C144.386 132.957 151.932 122.985 146.099 120.089C149.188 117.544 153.396 109.008 148.916 105.422H148.912Z" fill="#FF9C39"/>
<path d="M133.789 140.022C135.009 133.484 129.433 126.958 121.335 125.447C113.237 123.936 105.684 128.012 104.463 134.55C103.243 141.088 108.819 147.614 116.917 149.125C125.015 150.636 132.569 146.561 133.789 140.022Z" fill="#FF9C39"/>
<path d="M72.8043 145.944L75.5389 143.209C75.2074 140.226 73.1864 137.004 72.1137 135.466C71.3818 134.347 70.0467 135.319 69.2364 135.784C67.8922 135.738 67.0957 136.723 66.9392 137.998C66.4282 138.702 65.1944 139.858 66.1612 140.71C67.662 142.132 71.0641 145.244 72.8089 145.944H72.8043Z" fill="#03B2B2"/>
<path d="M72.4632 150.534C72.3481 151.455 72.6381 152.38 73.2504 153.075C76.3256 156.551 83.5304 165.998 88.0926 165.998C95.3848 165.998 105.016 147.417 99.7813 137.611C94.5469 127.801 75.3313 127.147 75.3313 127.147L72.4632 150.538V150.534Z" fill="#00B9B9"/>
<path d="M85.8276 165.316C98.4923 168.023 110.536 162.674 116.898 148.936C122.984 135.493 125.272 107.535 114.38 102.605C103.487 97.6745 83.5442 117.64 77.4581 131.083C71.1834 145.147 75.52 157.725 85.8276 165.316Z" fill="#00B9B9"/>
<mask id="mask2_31_2611" style="mask-type:luminance" maskUnits="userSpaceOnUse" x="73" y="90" width="51" height="50">
<path d="M123.066 90H73.043V139.167H123.066V90Z" fill="white"/>
</mask>
<g mask="url(#mask2_31_2611)">
<path d="M112.419 92.2097C114.978 90.8424 116.576 89.3508 118.164 90.2992C119.932 91.3534 119.158 93.333 118.546 96.155C118.008 98.6364 117.621 101.15 117.621 101.15L108.114 94.3458C108.114 94.3458 109.854 93.5816 112.419 92.2097Z" fill="#00B4B4"/>
<path d="M114.389 139.162L79.4751 136.893C77.3205 136.755 75.6862 134.89 75.8243 132.736L73.9553 114.169C73.8816 113.455 73.8862 112.737 73.9691 112.024C75.4468 99.0507 84.3918 89.2771 100.04 90.2485C115.701 91.1186 122.731 101.564 123.063 114.151C123.095 115.435 122.947 116.719 122.657 117.972L118.551 135.512C118.413 137.666 116.548 139.3 114.394 139.162H114.389Z" fill="#00B9B9"/>
<path d="M79.8106 97.0347C77.0576 96.1185 75.2345 94.917 73.8258 96.1139C72.2606 97.449 73.3562 99.2721 74.4335 101.951C75.3773 104.309 76.1829 106.721 76.1829 106.721L84.4142 98.4158C84.4142 98.4158 82.5728 97.9554 79.8106 97.0347Z" fill="#00B9B9"/>
<path d="M89.9534 103.189C94.5708 101.804 99.621 102.729 105.214 105.754C106.075 106.219 106.844 105.85 107.447 105.031C108.672 103.36 109.823 101.79 111.093 101.247C117.538 98.4844 120.586 104.621 121.231 110.799C122.497 122.829 117.686 130.77 103.87 132.266C90.0546 133.831 83.476 129.651 82.5829 116.084C82.1962 110.196 85.3451 104.575 89.9488 103.194L89.9534 103.189Z" fill="white"/>
<path d="M107.221 114.809C107.953 114.077 109.201 114.105 109.809 114.943C109.813 114.947 109.818 114.956 109.822 114.961L112.143 119.173C112.359 119.546 112.336 120.016 112.087 120.37L109.555 123.943C108.649 124.928 107.093 124.933 106.181 123.952L103.428 121.291C103.069 120.946 102.991 120.407 103.235 119.974C103.543 119.431 106.103 115.923 107.217 114.809H107.221Z" fill="#FF9C39"/>
<path fill-rule="evenodd" clip-rule="evenodd" d="M104.676 119.472C104.676 119.472 105.905 123.477 108.032 123.477C110.007 123.477 111.388 119.472 111.388 119.472L108.442 118.561C108.142 118.469 107.825 118.469 107.53 118.561L104.68 119.468L104.676 119.472Z" fill="#F6871F"/>
<path d="M108.045 121.202C110.073 121.02 111.656 120.185 111.58 119.336C111.503 118.488 109.797 117.948 107.769 118.13C105.74 118.312 104.158 119.147 104.234 119.996C104.31 120.844 106.016 121.384 108.045 121.202Z" fill="#FF9C39"/>
<path fill-rule="evenodd" clip-rule="evenodd" d="M114.964 112.549C116.166 112.392 117.284 112.604 118.072 113.069C118.131 113.106 118.2 113.046 118.177 112.986C117.653 111.633 116.258 110.758 114.757 110.951C113.251 111.149 112.133 112.355 111.976 113.796C111.967 113.865 112.055 113.898 112.101 113.852C112.74 113.202 113.762 112.705 114.969 112.549H114.964Z" fill="#008282"/>
<path fill-rule="evenodd" clip-rule="evenodd" d="M96.8537 115.246C98.3084 115.058 99.6573 115.316 100.606 115.873C100.675 115.914 100.762 115.845 100.735 115.771C100.104 114.132 98.4189 113.078 96.6005 113.318C94.782 113.557 93.4285 115.012 93.2398 116.756C93.2306 116.839 93.3319 116.881 93.3917 116.821C94.1605 116.038 95.4035 115.435 96.8537 115.246Z" fill="#008282"/>
</g>
<mask id="mask3_31_2611" style="mask-type:luminance" maskUnits="userSpaceOnUse" x="80" y="158" width="32" height="20">
<path d="M80.9758 158.885H111.176V177H80.9758V158.885Z" fill="white"/>
</mask>
<g mask="url(#mask3_31_2611)">
<path d="M89.7825 172.898L88.8709 172.392L88.4014 168.29H89.7825V172.898Z" fill="#FFA02C"/>
<path d="M91.7023 165.795C91.7023 168.023 90.5836 169.059 89.2071 169.059C87.8306 169.059 86.7119 168.023 86.7119 165.795C86.7119 163.567 87.8306 161.762 89.2071 161.762C90.5836 161.762 91.7023 163.567 91.7023 165.795Z" fill="#00B9B9"/>
<path d="M83.5809 172.369C85.5881 172.668 88.4009 171.37 88.4009 171.37L90.0536 172.898C90.0536 172.898 87.3651 177.147 84.8653 177C84.1564 176.958 82.7983 177.189 82.697 175.683C82.6464 174.942 81.6428 176.351 81.0903 175.168C80.5379 173.985 81.9558 172.129 83.5763 172.373L83.5809 172.369Z" fill="#FFA32C"/>
<path d="M88.9166 173.681C88.2261 173.754 87.6092 173.29 87.5355 172.636C87.4619 171.982 87.9637 171.393 88.6542 171.315C89.3448 171.236 90.0905 171.669 90.1642 172.323C90.2379 172.976 89.6026 173.607 88.9166 173.681Z" fill="#FFA02C"/>
<path d="M102.212 170.021L103.124 169.514L103.593 165.413H102.212V170.021Z" fill="#FFA02C"/>
<path d="M100.293 162.917C100.293 165.146 101.412 166.181 102.788 166.181C104.165 166.181 105.283 165.146 105.283 162.917C105.283 160.689 104.169 158.885 102.788 158.885C101.412 158.885 100.293 160.689 100.293 162.917Z" fill="#00B9B9"/>
<path d="M108.28 169.017C106.333 169.583 103.368 168.672 103.368 168.672L101.932 170.407C101.932 170.407 105.163 174.256 107.622 173.777C108.317 173.639 109.693 173.685 109.592 172.184C109.542 171.443 110.725 172.704 111.116 171.457C111.507 170.209 109.855 168.561 108.275 169.022L108.28 169.017Z" fill="#FFA32C"/>
<path d="M103.165 171.034C103.86 171.016 104.408 170.468 104.389 169.814C104.371 169.16 103.796 168.64 103.105 168.654C102.414 168.668 101.729 169.197 101.742 169.855C101.756 170.514 102.47 171.052 103.165 171.034Z" fill="#FFA02C"/>
</g>
<path fill-rule="evenodd" clip-rule="evenodd" d="M50.1584 163.626C57.8189 157.84 67.1413 140.857 70.3362 136.967C74.6038 131.764 78.2591 129.481 84.0091 130.687C89.4599 131.829 93.4789 137.823 93.6216 144.549C93.6584 146.344 93.3638 148.195 92.9034 149.783C90.956 157.223 79.0878 166.002 76.6064 162.167C74.544 166.628 65.0927 172.926 62.3765 167.53C57.7222 172.438 50.5589 173.308 48.4596 169.832C47.4192 167.784 48.1972 165.109 50.1584 163.631V163.626Z" fill="#008282"/>
<path d="M76.892 161.859C77.0117 161.859 77.1268 161.804 77.2142 161.712C79.1984 159.622 80.248 156.901 80.5243 156.118C80.6117 155.874 80.4874 155.593 80.2388 155.506C79.9948 155.418 79.7278 155.538 79.6404 155.782L79.6311 155.805C79.3733 156.542 78.3789 159.106 76.5237 161.062C76.3441 161.251 76.3533 161.55 76.5421 161.73C76.6388 161.822 76.7631 161.863 76.8828 161.859H76.892Z" fill="#007878"/>
<path d="M62.5383 167.231C62.6534 167.231 62.7639 167.18 62.8514 167.097C64.9322 165.039 66.1107 162.286 66.4191 161.495C66.5159 161.251 66.4008 160.97 66.1568 160.873C65.9128 160.776 65.6457 160.887 65.549 161.126L65.5399 161.149C65.2453 161.9 64.1358 164.496 62.1838 166.425C61.9997 166.609 61.9951 166.908 62.1838 167.093C62.2805 167.189 62.4094 167.235 62.5383 167.231Z" fill="#007878"/>
</g>
<path fill-rule="evenodd" clip-rule="evenodd" d="M324.141 55.8881L298.54 55.8771C298.023 55.8768 297.511 55.7747 297.033 55.5766C296.555 55.3785 296.121 55.0882 295.756 54.7223C295.39 54.3564 295.1 53.9221 294.902 53.4442C294.705 52.9662 294.603 52.454 294.603 51.9368C294.603 51.4196 294.705 50.9075 294.904 50.4297C295.102 49.952 295.392 49.5179 295.758 49.1524C296.124 48.7868 296.558 48.4969 297.036 48.2992C297.514 48.1014 298.026 47.9998 298.543 48L324.144 48.0111C325.175 48.033 326.155 48.4578 326.876 49.1944C327.597 49.931 328 50.9207 328 51.9513C328 52.9819 327.595 53.9713 326.874 54.7072C326.152 55.4432 325.171 55.8671 324.141 55.8881ZM314.349 71.6303L288.749 71.6192C288.225 71.6299 287.704 71.5359 287.216 71.3426C286.729 71.1494 286.285 70.8608 285.911 70.4939C285.536 70.1269 285.239 69.6889 285.036 69.2055C284.833 68.7222 284.729 68.2032 284.729 67.679C284.729 67.1547 284.834 66.6358 285.037 66.1526C285.241 65.6695 285.539 65.2317 285.913 64.8651C286.288 64.4984 286.732 64.2103 287.219 64.0174C287.707 63.8246 288.228 63.731 288.752 63.7422L314.353 63.7533C315.398 63.7537 316.399 64.1691 317.137 64.908C317.876 65.647 318.29 66.6489 318.29 67.6935C318.289 68.7381 317.874 69.7397 317.135 70.478C316.396 71.2162 315.393 71.6308 314.349 71.6303Z" fill="white"/>
<path fill-rule="evenodd" clip-rule="evenodd" d="M312.311 55.8766V55.8749L298.762 55.8689C299.807 55.8695 300.808 56.285 301.546 57.024C302.285 57.763 302.699 58.765 302.698 59.8096C302.698 60.8541 302.282 61.8557 301.543 62.5939C300.804 63.3321 299.802 63.7465 298.758 63.746L312.309 63.7519V63.7502C311.279 63.7283 310.298 63.3037 309.578 62.5674C308.857 61.8312 308.454 60.8419 308.455 59.8117C308.455 58.7816 308.859 57.7926 309.58 57.057C310.301 56.3213 311.282 55.8976 312.312 55.8766H312.311ZM281.072 92.2604H284.464C285.543 92.257 286.577 91.827 287.339 91.0641C288.102 90.3013 288.532 89.2676 288.535 88.1889C288.532 87.1102 288.102 86.0767 287.339 85.3139C286.577 84.5512 285.543 84.1213 284.464 84.1182H281.072C279.993 84.1213 278.959 84.5512 278.196 85.3139C277.433 86.0766 277.003 87.1101 277 88.1889C277.003 89.2677 277.433 90.3015 278.196 91.0644C278.959 91.8273 279.993 92.2573 281.072 92.2604Z" fill="white"/>
<path d="M251.161 85.5444L144.636 116.552C144.113 116.704 143.552 116.642 143.075 116.381C142.599 116.121 142.246 115.682 142.095 115.161L134.472 88.8321C134.321 88.3108 134.385 87.7507 134.648 87.2746C134.911 86.7985 135.352 86.4453 135.875 86.2924L242.4 55.2849C242.923 55.1333 243.484 55.1947 243.961 55.4555C244.437 55.7163 244.79 56.1553 244.941 56.6762L252.564 83.0047C252.715 83.526 252.651 84.0861 252.388 84.5622C252.125 85.0383 251.684 85.3915 251.161 85.5444Z" fill="white"/>
<path d="M251.161 85.5444L144.636 116.552C144.113 116.704 143.552 116.642 143.075 116.381C142.599 116.121 142.246 115.682 142.095 115.161L134.472 88.8321C134.321 88.3108 134.385 87.7507 134.648 87.2746C134.911 86.7985 135.352 86.4453 135.875 86.2924L242.4 55.2849C242.923 55.1333 243.484 55.1947 243.961 55.4555C244.437 55.7163 244.79 56.1553 244.941 56.6762L252.564 83.0047C252.715 83.526 252.651 84.0861 252.388 84.5622C252.125 85.0383 251.684 85.3915 251.161 85.5444ZM136.103 87.0788C135.789 87.1705 135.524 87.3824 135.366 87.6681C135.208 87.9538 135.17 88.29 135.26 88.6028L142.884 114.931C142.975 115.244 143.186 115.507 143.472 115.664C143.758 115.821 144.095 115.857 144.409 115.766L250.933 84.7586C251.247 84.667 251.512 84.4551 251.67 84.1693C251.828 83.8836 251.866 83.5475 251.776 83.2347L244.152 56.9059C244.062 56.5932 243.85 56.3297 243.564 56.1732C243.278 56.0166 242.941 55.9799 242.627 56.071L136.103 87.0788Z" fill="#E6E6E6"/>
<path d="M173.516 84.8423C173.34 84.893 173.176 84.9778 173.032 85.0918C172.889 85.2057 172.769 85.3465 172.681 85.5063C172.592 85.666 172.536 85.8415 172.515 86.0228C172.494 86.204 172.509 86.3874 172.56 86.5625C172.61 86.7376 172.695 86.901 172.809 87.0433C172.923 87.1857 173.064 87.3041 173.224 87.392C173.384 87.4799 173.56 87.5354 173.742 87.5554C173.924 87.5754 174.108 87.5595 174.284 87.5086L174.288 87.5073L237.41 69.1573C237.764 69.0537 238.064 68.8142 238.242 68.4915C238.42 68.1688 238.463 67.7892 238.36 67.4362C238.258 67.0832 238.019 66.7855 237.696 66.6085C237.373 66.4316 236.992 66.3898 236.637 66.4923L173.516 84.8423Z" fill="#E6E6E6"/>
<path d="M175.858 92.8608C175.682 92.9116 175.518 92.9964 175.375 93.1104C175.231 93.2243 175.112 93.3652 175.023 93.5251C174.934 93.6849 174.878 93.8604 174.857 94.0417C174.837 94.223 174.852 94.4065 174.902 94.5817C174.953 94.7569 175.037 94.9203 175.151 95.0627C175.265 95.2051 175.406 95.3236 175.566 95.4115C175.726 95.4994 175.902 95.5549 176.084 95.5749C176.266 95.595 176.45 95.5791 176.626 95.5282L176.631 95.5268L203.794 87.6275C204.149 87.5248 204.449 87.2858 204.628 86.9631C204.807 86.6405 204.851 86.2605 204.749 85.9069C204.647 85.5533 204.408 85.2549 204.085 85.0773C203.762 84.8998 203.381 84.8576 203.026 84.9602L203.021 84.9615L175.858 92.8608Z" fill="#E6E6E6"/>
<path d="M157.045 103.798C161.664 103.527 165.211 99.5779 164.969 94.9784C164.726 90.3788 160.785 86.8701 156.166 87.1414C151.547 87.4126 147.999 91.3612 148.242 95.9608C148.484 100.56 152.426 104.069 157.045 103.798Z" fill="#066360"/>
<path d="M156.623 100.287C156.353 100.366 156.064 100.356 155.801 100.258L155.785 100.252L152.339 98.9276C152.179 98.8663 152.032 98.7741 151.909 98.6562C151.785 98.5384 151.686 98.3972 151.617 98.2408C151.548 98.0844 151.511 97.9158 151.508 97.7447C151.505 97.5736 151.535 97.4034 151.598 97.2437C151.661 97.084 151.755 96.938 151.874 96.814C151.993 96.6901 152.136 96.5906 152.293 96.5213C152.451 96.4521 152.62 96.4143 152.792 96.4102C152.964 96.4062 153.135 96.4359 153.295 96.4977L155.528 97.3583L158.234 90.4837C158.361 90.1619 158.611 89.9025 158.928 89.7627C159.246 89.6229 159.605 89.6141 159.927 89.7383L159.911 89.7831L159.928 89.738C160.251 89.8625 160.509 90.1096 160.647 90.425C160.786 90.7404 160.792 91.0983 160.666 91.4202L157.483 99.5072C157.409 99.6936 157.293 99.8607 157.144 99.9958C156.995 100.131 156.817 100.23 156.624 100.286L156.623 100.287Z" fill="white"/>
</g>
<defs>
<clipPath id="clip0_31_2611">
<rect width="280" height="134" fill="white" transform="translate(48 43)"/>
</clipPath>
</defs>
</svg>
