<svg width="301" height="300" viewBox="0 0 301 300" fill="none" xmlns="http://www.w3.org/2000/svg">
<path opacity="0.2" d="M150.5 276C220.088 276 276.5 219.588 276.5 150C276.5 80.4121 220.088 24 150.5 24C80.9122 24 24.5001 80.4121 24.5001 150C24.5001 219.588 80.9122 276 150.5 276Z" fill="#00A7A7"/>
<g clip-path="url(#clip0_5925_18911)">
<path d="M226.459 151.606C229.3 151.606 231.603 149.303 231.603 146.463C231.603 143.622 229.3 141.319 226.459 141.319C223.619 141.319 221.316 143.622 221.316 146.463C221.316 149.303 223.619 151.606 226.459 151.606Z" fill="#00A7A7"/>
<path d="M160.331 19.3495C162.36 19.3495 164.005 17.7047 164.005 15.6757C164.005 13.6468 162.36 12.002 160.331 12.002C158.302 12.002 156.657 13.6468 156.657 15.6757C156.657 17.7047 158.302 19.3495 160.331 19.3495Z" fill="#FF9C39"/>
<path d="M228.664 82.539C230.693 82.539 232.338 80.8942 232.338 78.8652C232.338 76.8362 230.693 75.1914 228.664 75.1914C226.635 75.1914 224.99 76.8362 224.99 78.8652C224.99 80.8942 226.635 82.539 228.664 82.539Z" fill="#00A7A7"/>
<path d="M54.5739 132.149C56.6029 132.149 58.2477 130.505 58.2477 128.476C58.2477 126.447 56.6029 124.802 54.5739 124.802C52.545 124.802 50.9001 126.447 50.9001 128.476C50.9001 130.505 52.545 132.149 54.5739 132.149Z" fill="#00A7A7"/>
<path d="M180.904 50.2089C182.933 50.2089 184.578 48.5641 184.578 46.5351C184.578 44.5061 182.933 42.8613 180.904 42.8613C178.875 42.8613 177.231 44.5061 177.231 46.5351C177.231 48.5641 178.875 50.2089 180.904 50.2089Z" fill="#BDBDBD"/>
<path d="M259.324 137.533C256.746 135.874 254.599 133.627 253.057 130.977C251.515 128.328 250.623 125.35 250.455 122.289C250.411 121.424 250.281 120.427 250.999 119.793C251.265 119.544 251.607 119.393 251.97 119.364C252.333 119.335 252.694 119.43 252.996 119.633C253.343 119.938 253.581 120.35 253.671 120.803C253.762 121.257 253.701 121.727 253.497 122.143C253.294 122.558 252.959 122.895 252.545 123.101C252.132 123.307 251.661 123.372 251.207 123.285C248.913 123.041 247.725 120.776 246.76 118.959C244.561 114.818 241.899 110.698 237.873 108.119C234.148 105.732 229.17 104.936 225.159 107.083C224.458 107.459 225.087 108.519 225.786 108.145C229.763 106.017 234.728 107.225 238.18 109.825C240.212 111.42 241.955 113.351 243.336 115.534C244.065 116.641 244.732 117.788 245.362 118.955C245.929 120.122 246.599 121.236 247.363 122.285C248.686 123.947 250.988 125.16 253.093 124.206C253.562 123.964 253.967 123.615 254.277 123.187C254.587 122.76 254.793 122.265 254.878 121.744C254.963 121.223 254.924 120.689 254.766 120.186C254.608 119.682 254.334 119.222 253.966 118.843C253.601 118.533 253.165 118.319 252.696 118.219C252.228 118.119 251.742 118.137 251.282 118.272C250.822 118.406 250.403 118.652 250.062 118.988C249.721 119.324 249.468 119.74 249.327 120.198C249.111 121.274 249.106 122.382 249.314 123.46C249.649 126.528 250.669 129.482 252.297 132.104C253.925 134.726 256.121 136.949 258.723 138.61C259.397 139.031 259.996 137.953 259.324 137.533Z" fill="#BDBDBD"/>
<path d="M132.551 35.8102C129.491 35.6174 126.521 34.7024 123.883 33.14C121.246 31.5776 119.016 29.4124 117.377 26.8218C116.917 26.0874 116.317 25.2804 116.635 24.3764C116.746 24.0298 116.971 23.731 117.274 23.5289C117.577 23.3268 117.939 23.2334 118.301 23.2638C118.753 23.3611 119.161 23.6045 119.461 23.9564C119.761 24.3082 119.937 24.7491 119.962 25.2108C119.987 25.6726 119.859 26.1297 119.598 26.5117C119.337 26.8936 118.958 27.1791 118.519 27.3241C116.397 28.2293 114.256 26.8304 112.527 25.714C108.589 23.1702 104.257 20.8696 99.4844 20.5797C95.0688 20.3115 90.3338 22.0428 87.8778 25.872C87.4481 26.5419 88.515 27.1609 88.9425 26.4943C91.3783 22.6967 96.3024 21.3328 100.584 21.9198C103.135 22.3224 105.599 23.1588 107.868 24.3928C109.045 25.0035 110.186 25.6805 111.304 26.3922C112.368 27.1347 113.496 27.7813 114.675 28.3244C116.64 29.1317 119.242 29.0686 120.615 27.2099C120.906 26.7694 121.09 26.2669 121.152 25.7426C121.215 25.2183 121.153 24.6866 120.973 24.1902C120.794 23.6938 120.5 23.2463 120.116 22.8836C119.733 22.5209 119.269 22.253 118.764 22.1013C118.294 22.0087 117.808 22.0341 117.35 22.1753C116.893 22.3165 116.477 22.569 116.141 22.9103C115.805 23.2516 115.559 23.6709 115.425 24.1307C115.291 24.5905 115.273 25.0764 115.373 25.5448C115.708 26.59 116.244 27.5598 116.951 28.3999C118.739 30.9156 121.069 32.9981 123.769 34.494C126.469 35.9899 129.47 36.861 132.551 37.0432C133.344 37.0825 133.342 35.8493 132.551 35.8102Z" fill="#BDBDBD"/>
<path d="M133.145 59.7588H129.471V71.8298H133.145V59.7588Z" fill="#BDBDBD"/>
<path d="M76.1405 86.1323L78.6937 83.5791L70.3047 75.19L67.7515 77.7432L76.1405 86.1323Z" fill="#BDBDBD"/>
<path d="M179.243 91.8199L181.797 94.373L190.186 85.984L187.633 83.4308L179.243 91.8199Z" fill="#BDBDBD"/>
<path d="M72.5 166.788L75.0532 169.341L83.4423 160.952L80.8891 158.399L72.5 166.788Z" fill="#FF9C39"/>
<path fill-rule="evenodd" clip-rule="evenodd" d="M127.2 157.344C127.2 157.344 127.2 159.023 127.2 160.927C129.226 161.772 132.199 161.926 134.8 162.071C137.401 162.215 143.048 160.927 143.048 160.927L127.2 157.344Z" fill="#FFDBC8"/>
<path fill-rule="evenodd" clip-rule="evenodd" d="M194.738 170.803C194.738 171.619 199.795 167.991 203.963 164.181C203.173 155.791 204.274 146.527 204.274 144.998C202.409 145.398 192.425 149.778 192.425 149.778C192.425 149.778 191.707 160.741 192.063 163.977C192.691 169.686 194.738 170.919 194.738 170.803Z" fill="#F0A57E"/>
<path fill-rule="evenodd" clip-rule="evenodd" d="M176.5 111.963C176.5 111.963 183.14 106.572 186.38 106.572C189.62 106.572 191.723 107.525 193.309 110.059C194.895 112.593 192.664 117.985 192.664 117.985L176.5 111.963Z" fill="#FAB08A"/>
<path fill-rule="evenodd" clip-rule="evenodd" d="M176.5 111.963C176.5 111.963 179.257 109.818 180.456 109.029C184.071 110.317 190.139 112.538 193.776 114.474C193.57 115.521 192.664 117.986 192.664 117.986L176.5 111.963Z" fill="#F0A57E"/>
<path fill-rule="evenodd" clip-rule="evenodd" d="M112.614 83.7537L188.385 83.7537C198.043 83.7537 205.871 91.4095 205.871 100.853L205.871 269.571C205.871 279.015 198.043 286.671 188.385 286.671L112.614 286.671C102.957 286.671 95.1283 279.015 95.1283 269.571L95.1283 100.853C95.1283 91.4095 102.957 83.7537 112.614 83.7537Z" fill="#005960"/>
<path fill-rule="evenodd" clip-rule="evenodd" d="M113.453 90.5246L188.059 90.5246C195.14 90.5246 200.881 96.1389 200.881 103.064L200.881 267.222C200.881 274.148 195.14 279.762 188.059 279.762L113.453 279.762C106.371 279.762 100.63 274.148 100.63 267.222L100.63 103.064C100.63 96.1389 106.371 90.5246 113.453 90.5246Z" fill="white"/>
<ellipse cx="134.436" cy="99.6449" rx="2.91429" ry="2.84996" fill="#D7DDDC"/>
<path fill-rule="evenodd" clip-rule="evenodd" d="M141.43 97.9346L161.247 97.9346C162.213 97.9346 162.996 98.7002 162.996 99.6445C162.996 100.589 162.213 101.355 161.247 101.355L141.43 101.355C140.465 101.355 139.682 100.589 139.682 99.6445C139.682 98.7002 140.465 97.9346 141.43 97.9346Z" fill="#D7DDDC"/>
<ellipse cx="149.625" cy="151.088" rx="34.0697" ry="32.8483" fill="#E4E4E4"/>
<mask id="mask0_5925_18911" style="mask-type:luminance" maskUnits="userSpaceOnUse" x="115" y="118" width="69" height="66">
<ellipse cx="149.625" cy="151.088" rx="34.0697" ry="32.8483" fill="white"/>
</mask>
<g mask="url(#mask0_5925_18911)">
<path fill-rule="evenodd" clip-rule="evenodd" d="M129.528 162.286C113.783 178.625 114.039 204.314 130.329 220.245C146.62 236.176 172.888 236.426 189.596 221.028L129.528 162.286Z" fill="#008181"/>
<path fill-rule="evenodd" clip-rule="evenodd" d="M149.555 177.5C154.981 186.023 166.359 188.889 175.274 183.871C184.192 178.851 187.334 167.804 182.469 158.96L149.555 177.5Z" fill="#FF9445"/>
<mask id="mask1_5925_18911" style="mask-type:luminance" maskUnits="userSpaceOnUse" x="128" y="134" width="49" height="62">
<path fill-rule="evenodd" clip-rule="evenodd" d="M128.66 134.838H176.956V195.842H128.66V134.838Z" fill="white"/>
</mask>
<g mask="url(#mask1_5925_18911)">
<path fill-rule="evenodd" clip-rule="evenodd" d="M170.693 192.593V154.683C170.693 153.95 170.651 153.227 170.57 152.515C170.237 149.575 170.507 146.61 171.278 143.748C171.422 143.215 171.553 142.663 171.678 142.089C171.998 140.616 170.375 139.472 169.029 140.228C168.425 140.567 167.798 140.896 167.17 141.189C166.372 141.561 165.425 141.397 164.804 140.785C161.082 137.118 155.905 134.838 150.187 134.838C144.468 134.838 139.293 137.117 135.57 140.784C134.95 141.395 134.002 141.559 133.204 141.187C132.578 140.895 131.952 140.567 131.349 140.228C130.003 139.472 128.381 140.615 128.701 142.089C128.824 142.658 128.955 143.207 129.097 143.736C129.867 146.598 130.139 149.563 129.804 152.502C129.722 153.218 129.68 153.945 129.68 154.683V164.507C129.68 176.994 137.404 187.763 148.467 192.593H133.758H176.956H170.693Z" fill="#00BCBC"/>
</g>
<path opacity="0.901284" fill-rule="evenodd" clip-rule="evenodd" d="M158.624 144.585C154.743 144.585 151.438 146.982 150.187 150.336C148.936 146.982 145.632 144.585 141.751 144.585C136.795 144.585 132.778 148.492 132.778 153.311C132.778 163.244 133.763 171.297 150.187 171.297C165.699 171.297 167.596 163.244 167.596 153.311C167.596 148.492 163.579 144.585 158.624 144.585Z" fill="white"/>
</g>
<path fill-rule="evenodd" clip-rule="evenodd" d="M152.127 163.681L154.289 159.746C154.53 159.307 154.459 158.755 154.115 158.398L150.935 155.088C150.496 154.632 149.755 154.632 149.316 155.088L146.135 158.398C145.792 158.755 145.721 159.307 145.962 159.746L148.123 163.681C148.981 165.244 151.269 165.244 152.127 163.681Z" fill="#FF9445"/>
<path fill-rule="evenodd" clip-rule="evenodd" d="M161.946 154.57H160.152C160.152 153.989 160.004 152.638 158.627 152.638C157.251 152.638 157.102 153.989 157.102 154.57H155.309C155.309 152.409 156.643 150.957 158.627 150.957C160.613 150.957 161.946 152.409 161.946 154.57Z" fill="#007F7E"/>
<path fill-rule="evenodd" clip-rule="evenodd" d="M145.432 154.57H143.638C143.638 153.989 143.49 152.638 142.113 152.638C140.737 152.638 140.588 153.989 140.588 154.57H138.795C138.795 152.409 140.128 150.957 142.113 150.957C144.099 150.957 145.432 152.409 145.432 154.57Z" fill="#007F7E"/>
<rect x="136.933" y="188.637" width="50.1257" height="13.6798" rx="3.8808" fill="#E4E4E4"/>
<rect x="112.454" y="188.637" width="19.8171" height="13.6798" rx="3.8808" fill="#E4E4E4"/>
<rect x="112.454" y="222.838" width="74.6057" height="23.9397" rx="3.8808" fill="#00C9C3"/>
<rect x="112.454" y="203.458" width="74.6057" height="13.6798" rx="3.8808" fill="#E4E4E4"/>
<path d="M205.138 85.8371C205.138 89.8321 203.953 93.7373 201.733 97.0591C199.514 100.381 196.359 102.97 192.668 104.499C188.977 106.027 184.916 106.427 180.998 105.648C177.08 104.869 173.48 102.945 170.656 100.12C167.831 97.295 165.907 93.6959 165.128 89.7777C164.348 85.8594 164.748 81.7981 166.277 78.1072C167.806 74.4163 170.395 71.2616 173.716 69.0421C177.038 66.8226 180.943 65.6379 184.938 65.6379C190.296 65.6379 195.433 67.7661 199.221 71.5541C203.009 75.3422 205.138 80.4799 205.138 85.8371Z" fill="#118C8C"/>
<path d="M184.689 75.4482L176.331 81.1746C176.147 81.3006 175.989 81.4617 175.868 81.6485C175.746 81.8354 175.662 82.0444 175.621 82.2636C175.58 82.4829 175.583 82.708 175.629 82.9262C175.675 83.1445 175.763 83.3514 175.889 83.5354C176.015 83.7194 176.177 83.8768 176.363 83.9985C176.55 84.1203 176.759 84.204 176.979 84.245C177.198 84.2859 177.423 84.2833 177.641 84.2372C177.859 84.1912 178.066 84.1026 178.25 83.9766L183.656 80.2732V94.7819C183.656 95.0436 183.707 95.3027 183.807 95.5444C183.908 95.7862 184.054 96.0058 184.239 96.1908C184.424 96.3758 184.644 96.5226 184.886 96.6228C185.128 96.7229 185.387 96.7744 185.648 96.7744C185.91 96.7744 186.169 96.7229 186.411 96.6228C186.653 96.5226 186.872 96.3758 187.057 96.1908C187.242 96.0058 187.389 95.7862 187.489 95.5444C187.589 95.3027 187.641 95.0436 187.641 94.7819V80.0909L193.312 83.9766C193.684 84.2311 194.141 84.3277 194.584 84.245C195.027 84.1622 195.419 83.907 195.673 83.5354C195.928 83.1639 196.024 82.7064 195.942 82.2636C195.859 81.8209 195.604 81.4292 195.232 81.1746L186.874 75.4482C186.54 75.2617 186.164 75.1638 185.781 75.1638C185.399 75.1638 185.023 75.2617 184.689 75.4482Z" fill="white"/>
</g>
<defs>
<clipPath id="clip0_5925_18911">
<rect width="218.224" height="274.8" fill="white" transform="translate(41.3002 12.001)"/>
</clipPath>
</defs>
</svg>
